<svg xmlns="http://www.w3.org/2000/svg" viewBox="0 0 200 200" width="200" height="200">
  <defs>
    <linearGradient id="grad1" x1="0%" y1="0%" x2="100%" y2="100%">
      <stop offset="0%" style="stop-color:#667eea;stop-opacity:1" />
      <stop offset="100%" style="stop-color:#764ba2;stop-opacity:1" />
    </linearGradient>
    <linearGradient id="grad2" x1="0%" y1="0%" x2="100%" y2="100%">
      <stop offset="0%" style="stop-color:#48bb78;stop-opacity:1" />
      <stop offset="100%" style="stop-color:#38a169;stop-opacity:1" />
    </linearGradient>
  </defs>
  
  <!-- Book base -->
  <g transform="translate(100, 100)">
    <!-- Book pages -->
    <path d="M -40 -30 L -40 40 Q -40 50 -30 50 L 30 50 Q 40 50 40 40 L 40 -30 Q 40 -40 30 -40 L -30 -40 Q -40 -40 -40 -30 Z" 
          fill="url(#grad1)" opacity="0.9"/>
    
    <!-- Book spine -->
    <rect x="-5" y="-40" width="10" height="90" fill="#4a5568" rx="2"/>
    
    <!-- Neural network nodes -->
    <g opacity="0.85">
      <!-- Input layer -->
      <circle cx="-25" cy="-15" r="6" fill="#fff" stroke="#667eea" stroke-width="2"/>
      <circle cx="-25" cy="0" r="6" fill="#fff" stroke="#667eea" stroke-width="2"/>
      <circle cx="-25" cy="15" r="6" fill="#fff" stroke="#667eea" stroke-width="2"/>
      
      <!-- Hidden layer -->
      <circle cx="0" cy="-20" r="6" fill="#fff" stroke="#48bb78" stroke-width="2"/>
      <circle cx="0" cy="-5" r="6" fill="#fff" stroke="#48bb78" stroke-width="2"/>
      <circle cx="0" cy="10" r="6" fill="#fff" stroke="#48bb78" stroke-width="2"/>
      <circle cx="0" cy="25" r="6" fill="#fff" stroke="#48bb78" stroke-width="2"/>
      
      <!-- Output layer -->
      <circle cx="25" cy="-7.5" r="6" fill="#fff" stroke="#764ba2" stroke-width="2"/>
      <circle cx="25" cy="7.5" r="6" fill="#fff" stroke="#764ba2" stroke-width="2"/>
      
      <!-- Connections -->
      <g stroke="#e2e8f0" stroke-width="1.5" opacity="0.6">
        <!-- Input to hidden -->
        <line x1="-19" y1="-15" x2="-6" y2="-20"/>
        <line x1="-19" y1="-15" x2="-6" y2="-5"/>
        <line x1="-19" y1="-15" x2="-6" y2="10"/>
        <line x1="-19" y1="-15" x2="-6" y2="25"/>
        
        <line x1="-19" y1="0" x2="-6" y2="-20"/>
        <line x1="-19" y1="0" x2="-6" y2="-5"/>
        <line x1="-19" y1="0" x2="-6" y2="10"/>
        <line x1="-19" y1="0" x2="-6" y2="25"/>
        
        <line x1="-19" y1="15" x2="-6" y2="-20"/>
        <line x1="-19" y1="15" x2="-6" y2="-5"/>
        <line x1="-19" y1="15" x2="-6" y2="10"/>
        <line x1="-19" y1="15" x2="-6" y2="25"/>
        
        <!-- Hidden to output -->
        <line x1="6" y1="-20" x2="19" y2="-7.5"/>
        <line x1="6" y1="-20" x2="19" y2="7.5"/>
        
        <line x1="6" y1="-5" x2="19" y2="-7.5"/>
        <line x1="6" y1="-5" x2="19" y2="7.5"/>
        
        <line x1="6" y1="10" x2="19" y2="-7.5"/>
        <line x1="6" y1="10" x2="19" y2="7.5"/>
        
        <line x1="6" y1="25" x2="19" y2="-7.5"/>
        <line x1="6" y1="25" x2="19" y2="7.5"/>
      </g>
    </g>
    
    <!-- Chronicle indicator (clock/time symbol) -->
    <g transform="translate(35, -35)">
      <circle cx="0" cy="0" r="12" fill="url(#grad2)" opacity="0.9"/>
      <circle cx="0" cy="0" r="10" fill="#fff"/>
      <line x1="0" y1="0" x2="0" y2="-6" stroke="#4a5568" stroke-width="2" stroke-linecap="round"/>
      <line x1="0" y1="0" x2="4" y2="2" stroke="#4a5568" stroke-width="2" stroke-linecap="round"/>
    </g>
  </g>
</svg>